<svg width="20" height="18" viewBox="0 0 20 18" fill="none" xmlns="http://www.w3.org/2000/svg">
<path class="change-my-color" d="M17.9061 1.51184C15.6483 -0.386595 12.16 -0.101439 9.99988 2.09778C7.83973 -0.101439 4.35144 -0.390501 2.09363 1.51184C-0.843868 3.9845 -0.41418 8.01575 1.67957 10.1525L8.53113 17.1329C8.92176 17.5314 9.4452 17.754 9.99988 17.754C10.5585 17.754 11.078 17.5353 11.4686 17.1368L18.3202 10.1564C20.41 8.01965 20.8475 3.9884 17.9061 1.51184ZM16.9843 8.83606L10.1327 15.8165C10.0389 15.9103 9.96082 15.9103 9.86707 15.8165L3.01551 8.83606C1.58973 7.38294 1.30066 4.63294 3.30066 2.94934C4.8202 1.672 7.16395 1.8634 8.6327 3.3595L9.99988 4.75403L11.3671 3.3595C12.8436 1.85559 15.1874 1.672 16.6991 2.94544C18.6952 4.62903 18.3983 7.39465 16.9843 8.83606Z" fill="black"/>
</svg>
