<svg width="20" height="18" viewBox="0 0 20 18" fill="none" xmlns="http://www.w3.org/2000/svg">
<path d="M10.0002 0.25C4.47671 0.25 0.000151101 3.88672 0.000151101 8.375C0.000151101 10.2344 0.777495 11.9375 2.06656 13.3086C1.48453 14.8477 0.273589 16.1523 0.254057 16.168C-0.00375515 16.4414 -0.0740676 16.8398 0.0743698 17.1836C0.222807 17.5273 0.562651 17.75 0.937651 17.75C3.33999 17.75 5.23453 16.7461 6.37125 15.9414C7.50015 16.2969 8.7189 16.5 10.0002 16.5C15.5236 16.5 20.0002 12.8633 20.0002 8.375C20.0002 3.88672 15.5236 0.25 10.0002 0.25ZM10.0002 14.625C8.95718 14.625 7.92593 14.4648 6.93765 14.1523L6.05093 13.8711L5.28921 14.4102C4.73062 14.8047 3.96499 15.2461 3.04312 15.543C3.32828 15.0703 3.60562 14.5391 3.82046 13.9727L4.23453 12.875L3.42984 12.0234C2.72281 11.2695 1.87515 10.0234 1.87515 8.375C1.87515 4.92969 5.51968 2.125 10.0002 2.125C14.4806 2.125 18.1252 4.92969 18.1252 8.375C18.1252 11.8203 14.4806 14.625 10.0002 14.625Z" fill="#0F1419"/>
</svg>
